<?xml version="1.0" encoding="UTF-8"?>
<svg xmlns="http://www.w3.org/2000/svg" width="100" height="100" viewBox="0 0 100 100">
	<defs>
		<!-- Gradient pre hladký profesionálny vzhľad -->
		<linearGradient id="blueGradient" x1="0%" y1="0%" x2="0%" y2="100%">
			<stop offset="0%" stop-color="#003C7D"/>
			<stop offset="100%" stop-color="#0055AA"/>
		</linearGradient>

		<!-- Jemný tieň pre 3D efekt -->
		<filter id="softShadow" x="-10%" y="-10%" width="130%" height="130%">
			<feDropShadow dx="0.8" dy="0.8" stdDeviation="0.8" flood-color="#002244" flood-opacity="0.3"/>
		</filter>
	</defs>

	<!-- Celá skupina s tieňom -->
	<g fill="none" stroke="url(#blueGradient)" stroke-width="2" filter="url(#softShadow)">

		<!-- Palica -->
		<line x1="50" y1="10" x2="50" y2="90" stroke-linecap="round"/>

		<!-- Vonkajšie krídla -->
		<path d="M30,25 C18,12 8,25 8,35 C8,45 20,50 32,38 
             C42,30 58,30 68,38 C80,50 92,45 92,35 C92,25 82,12 70,25"
			  stroke-linecap="round" stroke-linejoin="round"/>

		<!-- Vnútorné krídla (jemnejšie perie) -->
		<path d="M35,27 C26,18 16,28 16,35 C16,42 26,45 35,38 
             C45,32 55,32 65,38 C74,45 84,42 84,35 C84,28 74,18 65,27"
			  stroke-width="1.2" opacity="0.7" stroke-linecap="round" stroke-linejoin="round"/>

		<!-- Hadi - ľavý -->
		<path d="M40,40 C30,50 30,60 40,70 C45,75 45,85 40,90" stroke-linecap="round"/>
		<!-- Hadi - pravý -->
		<path d="M60,40 C70,50 70,60 60,70 C55,75 55,85 60,90" stroke-linecap="round"/>

		<!-- Hlavičky hadov -->
		<circle cx="40" cy="90" r="3" fill="#004C99"/>
		<circle cx="60" cy="90" r="3" fill="#004C99"/>

		<!-- Oči hadov -->
		<circle cx="39.3" cy="90" r="0.6" fill="#FFFFFF"/>
		<circle cx="59.3" cy="90" r="0.6" fill="#FFFFFF"/>

		<!-- Jazyky hadov -->
		<path d="M40,93 l-0.8,1.5 l1.6,0 z" fill="#004C99"/>
		<path d="M60,93 l-0.8,1.5 l1.6,0 z" fill="#004C99"/>

		<!-- Gombík na vrchu palice -->
		<circle cx="50" cy="10" r="2.8" fill="url(#blueGradient)" stroke="#FFFFFF" stroke-width="0.4"/>

		<!-- Dekoratívny prsteň pod gombíkom -->
		<ellipse cx="50" cy="13" rx="3.2" ry="1.1" fill="none" stroke="#004C99" stroke-width="0.7" opacity="0.8"/>
	</g>
</svg>
